<?xml version="1.0" encoding="UTF-8" standalone="no"?>
<!-- Created with Inkscape (http://www.inkscape.org/) -->

<svg
   width="200"
   height="200"
   viewBox="0 0 52.916665 52.916666"
   version="1.1"
   id="svg1"
   xml:space="preserve"
   inkscape:version="1.3.2 (091e20e, 2023-11-25, custom)"
   sodipodi:docname="trashCan.svg"
   xmlns:inkscape="http://www.inkscape.org/namespaces/inkscape"
   xmlns:sodipodi="http://sodipodi.sourceforge.net/DTD/sodipodi-0.dtd"
   xmlns="http://www.w3.org/2000/svg"
   xmlns:svg="http://www.w3.org/2000/svg"><sodipodi:namedview
     id="namedview1"
     pagecolor="#ffffff"
     bordercolor="#000000"
     borderopacity="0.25"
     inkscape:showpageshadow="2"
     inkscape:pageopacity="0.0"
     inkscape:pagecheckerboard="0"
     inkscape:deskcolor="#ffffff"
     inkscape:document-units="px"
     inkscape:zoom="2.0000001"
     inkscape:cx="-58.499998"
     inkscape:cy="108.5"
     inkscape:window-width="2560"
     inkscape:window-height="1476"
     inkscape:window-x="-12"
     inkscape:window-y="-12"
     inkscape:window-maximized="1"
     inkscape:current-layer="layer1"
     showgrid="true"><inkscape:grid
       id="grid42"
       units="px"
       originx="0"
       originy="0"
       spacingx="0.26458333"
       spacingy="0.26458333"
       empcolor="#0099e5"
       empopacity="0.30196078"
       color="#0099e5"
       opacity="0.14901961"
       empspacing="5"
       dotted="false"
       gridanglex="30"
       gridanglez="30"
       visible="true" /></sodipodi:namedview><defs
     id="defs1"><inkscape:path-effect
       effect="fillet_chamfer"
       id="path-effect26"
       is_visible="true"
       lpeversion="1"
       nodesatellites_param="F,0,0,1,0,0,0,1 @ F,0,0,1,0,0,0,1 @ F,0,0,1,0,4.6959256,0,1 @ F,0,0,1,0,4.5275457,0,1"
       radius="0"
       unit="px"
       method="auto"
       mode="F"
       chamfer_steps="1"
       flexible="false"
       use_knot_distance="true"
       apply_no_radius="true"
       apply_with_radius="true"
       only_selected="false"
       hide_knots="false" /><linearGradient
       id="swatch24"
       inkscape:swatch="solid"><stop
         style="stop-color:#e5c476;stop-opacity:1;"
         offset="0"
         id="stop24" /></linearGradient><linearGradient
       id="swatch22"
       inkscape:swatch="solid"><stop
         style="stop-color:#e5c476;stop-opacity:1;"
         offset="0"
         id="stop22" /></linearGradient></defs><g
     inkscape:groupmode="layer"
     id="layer2"
     inkscape:label="Layer 2"><rect
       style="opacity:0.92340426;fill:#ececec;fill-opacity:0.73462784;stroke:#ffffff;stroke-width:0.99986;stroke-linecap:round;stroke-linejoin:round;stroke-dasharray:none;stroke-opacity:0.00809062"
       id="rect42"
       width="53.133183"
       height="52.946095"
       x="0"
       y="-0.18708867" /><path
       style="fill:#c6deff;fill-opacity:1;stroke:#565d71;stroke-width:0.05;stroke-dasharray:none;stroke-opacity:1"
       d="m 97.812498,150.58312 c -3.048884,-0.11042 -6.171507,-0.76696 -9.0625,-1.90544 -9.801471,-3.85981 -16.596853,-12.77568 -17.712922,-23.24018 -0.05133,-0.48125 -0.100562,-1.08981 -0.109413,-1.35234 l -0.01609,-0.47734 0.443762,-0.49141 c 0.70933,-0.78549 2.301795,-2.31924 3.082165,-2.96853 5.273092,-4.3873 10.477276,-5.97664 15.15625,-4.62866 1.75299,0.50502 3.51557,1.45195 5.123951,2.75278 0.635467,0.51396 1.965378,1.81932 2.58828,2.5405 0.933174,1.0804 1.313027,1.58328 2.667378,3.53125 3.559751,5.12001 7.175991,7.87528 11.236031,8.56092 0.97017,0.16383 2.51617,0.17901 3.48828,0.0342 2.70877,-0.4034 5.47268,-1.76263 8.17733,-4.02141 0.93029,-0.77693 2.74308,-2.60284 3.5,-3.52532 0.57084,-0.69572 0.59453,-0.71624 0.61409,-0.53214 0.0112,0.10532 -0.0261,0.55958 -0.0828,1.00947 -1.12937,8.95806 -6.32346,16.72794 -14.12706,21.13276 -4.54709,2.56664 -9.59869,3.77526 -14.96674,3.58085 z"
       id="path43"
       transform="scale(0.26458333)" /><path
       style="fill:#1577ff;fill-opacity:1;stroke:#565d71;stroke-width:0.05;stroke-dasharray:none;stroke-opacity:1"
       d="m 97.812498,150.58312 c -3.048884,-0.11042 -6.171507,-0.76696 -9.0625,-1.90544 -9.801471,-3.85981 -16.596853,-12.77568 -17.712922,-23.24018 -0.05133,-0.48125 -0.100562,-1.08981 -0.109413,-1.35234 l -0.01609,-0.47734 0.443762,-0.49141 c 0.70933,-0.78549 2.301795,-2.31924 3.082165,-2.96853 5.273092,-4.3873 10.477276,-5.97664 15.15625,-4.62866 1.75299,0.50502 3.51557,1.45195 5.123951,2.75278 0.635467,0.51396 1.965378,1.81932 2.58828,2.5405 0.933174,1.0804 1.313027,1.58328 2.667378,3.53125 3.559751,5.12001 7.175991,7.87528 11.236031,8.56092 0.97017,0.16383 2.51617,0.17901 3.48828,0.0342 2.70877,-0.4034 5.47268,-1.76263 8.17733,-4.02141 0.93029,-0.77693 2.74308,-2.60284 3.5,-3.52532 0.57084,-0.69572 0.59453,-0.71624 0.61409,-0.53214 0.0112,0.10532 -0.0261,0.55958 -0.0828,1.00947 -1.12937,8.95806 -6.32346,16.72794 -14.12706,21.13276 -4.54709,2.56664 -9.59869,3.77526 -14.96674,3.58085 z"
       id="path44"
       transform="scale(0.26458333)" /><path
       style="fill:#1577ff;fill-opacity:1;stroke:#565d71;stroke-width:0.05;stroke-dasharray:none;stroke-opacity:1"
       d="m 97.812498,150.58312 c -3.048884,-0.11042 -6.171507,-0.76696 -9.0625,-1.90544 -9.801471,-3.85981 -16.596853,-12.77568 -17.712922,-23.24018 -0.05133,-0.48125 -0.100562,-1.08981 -0.109413,-1.35234 l -0.01609,-0.47734 0.443762,-0.49141 c 0.70933,-0.78549 2.301795,-2.31924 3.082165,-2.96853 5.273092,-4.3873 10.477276,-5.97664 15.15625,-4.62866 1.75299,0.50502 3.51557,1.45195 5.123951,2.75278 0.635467,0.51396 1.965378,1.81932 2.58828,2.5405 0.933174,1.0804 1.313027,1.58328 2.667378,3.53125 3.559751,5.12001 7.175991,7.87528 11.236031,8.56092 0.97017,0.16383 2.51617,0.17901 3.48828,0.0342 2.70877,-0.4034 5.47268,-1.76263 8.17733,-4.02141 0.93029,-0.77693 2.74308,-2.60284 3.5,-3.52532 0.57084,-0.69572 0.59453,-0.71624 0.61409,-0.53214 0.0112,0.10532 -0.0261,0.55958 -0.0828,1.00947 -1.12937,8.95806 -6.32346,16.72794 -14.12706,21.13276 -4.54709,2.56664 -9.59869,3.77526 -14.96674,3.58085 z"
       id="path45"
       transform="scale(0.26458333)" /><path
       style="fill:#1577ff;fill-opacity:1;stroke:#565d71;stroke-width:0.05;stroke-dasharray:none;stroke-opacity:1"
       d="m 97.812498,150.58312 c -3.048884,-0.11042 -6.171507,-0.76696 -9.0625,-1.90544 -9.801471,-3.85981 -16.596853,-12.77568 -17.712922,-23.24018 -0.05133,-0.48125 -0.100562,-1.08981 -0.109413,-1.35234 l -0.01609,-0.47734 0.443762,-0.49141 c 0.70933,-0.78549 2.301795,-2.31924 3.082165,-2.96853 5.273092,-4.3873 10.477276,-5.97664 15.15625,-4.62866 1.75299,0.50502 3.51557,1.45195 5.123951,2.75278 0.635467,0.51396 1.965378,1.81932 2.58828,2.5405 0.933174,1.0804 1.313027,1.58328 2.667378,3.53125 3.559751,5.12001 7.175991,7.87528 11.236031,8.56092 0.97017,0.16383 2.51617,0.17901 3.48828,0.0342 2.70877,-0.4034 5.47268,-1.76263 8.17733,-4.02141 0.93029,-0.77693 2.74308,-2.60284 3.5,-3.52532 0.57084,-0.69572 0.59453,-0.71624 0.61409,-0.53214 0.0112,0.10532 -0.0261,0.55958 -0.0828,1.00947 -1.12937,8.95806 -6.32346,16.72794 -14.12706,21.13276 -4.54709,2.56664 -9.59869,3.77526 -14.96674,3.58085 z"
       id="path46"
       transform="scale(0.26458333)" /><path
       style="fill:#1577ff;fill-opacity:1;stroke:#565d71;stroke-width:0.05;stroke-dasharray:none;stroke-opacity:1"
       d="m 97.812498,150.58312 c -3.048884,-0.11042 -6.171507,-0.76696 -9.0625,-1.90544 -9.801471,-3.85981 -16.596853,-12.77568 -17.712922,-23.24018 -0.05133,-0.48125 -0.100562,-1.08981 -0.109413,-1.35234 l -0.01609,-0.47734 0.443762,-0.49141 c 0.70933,-0.78549 2.301795,-2.31924 3.082165,-2.96853 5.273092,-4.3873 10.477276,-5.97664 15.15625,-4.62866 1.75299,0.50502 3.51557,1.45195 5.123951,2.75278 0.635467,0.51396 1.965378,1.81932 2.58828,2.5405 0.933174,1.0804 1.313027,1.58328 2.667378,3.53125 3.559751,5.12001 7.175991,7.87528 11.236031,8.56092 0.97017,0.16383 2.51617,0.17901 3.48828,0.0342 2.70877,-0.4034 5.47268,-1.76263 8.17733,-4.02141 0.93029,-0.77693 2.74308,-2.60284 3.5,-3.52532 0.57084,-0.69572 0.59453,-0.71624 0.61409,-0.53214 0.0112,0.10532 -0.0261,0.55958 -0.0828,1.00947 -1.12937,8.95806 -6.32346,16.72794 -14.12706,21.13276 -4.54709,2.56664 -9.59869,3.77526 -14.96674,3.58085 z"
       id="path47"
       transform="scale(0.26458333)" /><path
       style="fill:#fec7d6;fill-opacity:1;stroke:#565d71;stroke-width:0.1;stroke-dasharray:none;stroke-opacity:1"
       d="m 96.374998,150.47795 c -6.520342,-0.66378 -12.486859,-3.46604 -17.106536,-8.03432 -4.776231,-4.72309 -7.71424,-10.98313 -8.245447,-17.56863 l -0.100829,-1.25 1.320156,-1.35803 c 4.634319,-4.76726 10.08357,-7.43254 14.632656,-7.15697 3.325882,0.20147 6.177767,1.56399 9.044068,4.32089 1.268472,1.22006 2.245107,2.40493 3.766114,4.56911 2.85176,4.05765 5.29279,6.40454 8.12732,7.81384 1.67372,0.83217 2.87158,1.13357 4.8125,1.21093 2.50255,0.0997 4.62947,-0.4575 7.06272,-1.85038 2.18609,-1.25139 4.72013,-3.40869 6.66535,-5.67439 l 0.64391,-0.75 -0.0746,0.75 c -0.26142,2.62664 -1.32351,6.40158 -2.51528,8.93996 -4.13759,8.81278 -12.72331,14.93261 -22.43338,15.99032 -1.12062,0.12206 -4.578644,0.15151 -5.598672,0.0477 z"
       id="path48"
       transform="scale(0.26458333)" /><path
       style="fill:#fec7d6;fill-opacity:1;stroke:#565d71;stroke-width:0.05;stroke-dasharray:none;stroke-opacity:1"
       d="m 97.812498,150.58312 c -3.048884,-0.11042 -6.171507,-0.76696 -9.0625,-1.90544 -9.801471,-3.85981 -16.596853,-12.77568 -17.712922,-23.24018 -0.05133,-0.48125 -0.100562,-1.08981 -0.109413,-1.35234 l -0.01609,-0.47734 0.443762,-0.49141 c 0.70933,-0.78549 2.301795,-2.31924 3.082165,-2.96853 5.273092,-4.3873 10.477276,-5.97664 15.15625,-4.62866 1.75299,0.50502 3.51557,1.45195 5.123951,2.75278 0.635467,0.51396 1.965378,1.81932 2.58828,2.5405 0.933174,1.0804 1.313027,1.58328 2.667378,3.53125 3.559751,5.12001 7.175991,7.87528 11.236031,8.56092 0.97017,0.16383 2.51617,0.17901 3.48828,0.0342 2.70877,-0.4034 5.47268,-1.76263 8.17733,-4.02141 0.93029,-0.77693 2.74308,-2.60284 3.5,-3.52532 0.57084,-0.69572 0.59453,-0.71624 0.61409,-0.53214 0.0112,0.10532 -0.0261,0.55958 -0.0828,1.00947 -1.12937,8.95806 -6.32346,16.72794 -14.12706,21.13276 -4.54709,2.56664 -9.59869,3.77526 -14.96674,3.58085 z"
       id="path49"
       transform="scale(0.26458333)" /><path
       style="fill:#fec7d6;fill-opacity:1;stroke:#565d71;stroke-width:0.05;stroke-dasharray:none;stroke-opacity:1"
       d="m 97.812498,150.58312 c -3.048884,-0.11042 -6.171507,-0.76696 -9.0625,-1.90544 -9.801471,-3.85981 -16.596853,-12.77568 -17.712922,-23.24018 -0.05133,-0.48125 -0.100562,-1.08981 -0.109413,-1.35234 l -0.01609,-0.47734 0.443762,-0.49141 c 0.70933,-0.78549 2.301795,-2.31924 3.082165,-2.96853 5.273092,-4.3873 10.477276,-5.97664 15.15625,-4.62866 1.75299,0.50502 3.51557,1.45195 5.123951,2.75278 0.635467,0.51396 1.965378,1.81932 2.58828,2.5405 0.933174,1.0804 1.313027,1.58328 2.667378,3.53125 3.559751,5.12001 7.175991,7.87528 11.236031,8.56092 0.97017,0.16383 2.51617,0.17901 3.48828,0.0342 2.70877,-0.4034 5.47268,-1.76263 8.17733,-4.02141 0.93029,-0.77693 2.74308,-2.60284 3.5,-3.52532 0.57084,-0.69572 0.59453,-0.71624 0.61409,-0.53214 0.0112,0.10532 -0.0261,0.55958 -0.0828,1.00947 -1.12937,8.95806 -6.32346,16.72794 -14.12706,21.13276 -4.54709,2.56664 -9.59869,3.77526 -14.96674,3.58085 z"
       id="path50"
       transform="scale(0.26458333)" /><path
       style="fill:#fec7d6;fill-opacity:1;stroke:#565d71;stroke-width:0.05;stroke-dasharray:none;stroke-opacity:1"
       d="m 97.812498,150.58312 c -3.048884,-0.11042 -6.171507,-0.76696 -9.0625,-1.90544 -9.801471,-3.85981 -16.596853,-12.77568 -17.712922,-23.24018 -0.05133,-0.48125 -0.100562,-1.08981 -0.109413,-1.35234 l -0.01609,-0.47734 0.443762,-0.49141 c 0.70933,-0.78549 2.301795,-2.31924 3.082165,-2.96853 5.273092,-4.3873 10.477276,-5.97664 15.15625,-4.62866 1.75299,0.50502 3.51557,1.45195 5.123951,2.75278 0.635467,0.51396 1.965378,1.81932 2.58828,2.5405 0.933174,1.0804 1.313027,1.58328 2.667378,3.53125 3.559751,5.12001 7.175991,7.87528 11.236031,8.56092 0.97017,0.16383 2.51617,0.17901 3.48828,0.0342 2.70877,-0.4034 5.47268,-1.76263 8.17733,-4.02141 0.93029,-0.77693 2.74308,-2.60284 3.5,-3.52532 0.57084,-0.69572 0.59453,-0.71624 0.61409,-0.53214 0.0112,0.10532 -0.0261,0.55958 -0.0828,1.00947 -1.12937,8.95806 -6.32346,16.72794 -14.12706,21.13276 -4.54709,2.56664 -9.59869,3.77526 -14.96674,3.58085 z"
       id="path51"
       transform="scale(0.26458333)" /></g><g
     inkscape:label="Layer 1"
     inkscape:groupmode="layer"
     id="layer1"><rect
       style="opacity:0.92340426;fill:#2a87ff;stroke:#565d71;stroke-width:0.99986;stroke-opacity:1;stroke-linejoin:round;stroke-linecap:round;fill-opacity:1"
       id="rect2"
       width="25.818235"
       height="3.1805072"
       x="13.283296"
       y="15.341271" /><rect
       style="opacity:0.92340426;fill:#2a87ff;fill-opacity:1;stroke:#565d71;stroke-width:0.99986;stroke-linecap:round;stroke-linejoin:round;stroke-opacity:1"
       id="rect3"
       width="7.4835467"
       height="2.4321527"
       x="22.450642"
       y="11.786587" /><path
       style="opacity:0.923404;fill:#2a87ff;fill-opacity:1;stroke:#565d71;stroke-width:0.99986039;stroke-linecap:round;stroke-linejoin:round;stroke-opacity:1;stroke-dasharray:none"
       id="rect4"
       width="22.63773"
       height="24.695704"
       x="14.967093"
       y="20.018486"
       inkscape:path-effect="#path-effect26"
       sodipodi:type="rect"
       d="m 14.967093,20.018486 h 22.63773 V 40.018264 A 4.6959256,4.6959256 135 0 1 32.908898,44.71419 H 19.494639 a 4.5275457,4.5275457 45 0 1 -4.527546,-4.527546 z" /><g
       id="g53"><circle
         style="fill:#c6deff;fill-opacity:1;stroke:#565d71;stroke-width:0.82020832;stroke-opacity:1;stroke-dasharray:none"
         id="path1"
         cx="26.192413"
         cy="32.413113"
         r="7.8577237" /><path
         style="fill:#c6deff;fill-opacity:1;stroke:#565d71;stroke-width:0.166337;stroke-dasharray:none;stroke-opacity:1"
         d="m 18.616027,31.724158 c 0,0 4.265346,-3.225365 7.85633,0.03005 3.590983,3.255413 7.249403,-0.05008 7.249403,-0.05008"
         id="path42" /></g><path
       style="fill:#78adfb;fill-opacity:1;stroke:#565d71;stroke-width:0.1;stroke-dasharray:none;stroke-opacity:1"
       d="m 96.499998,150.48749 c -5.208704,-0.45234 -10.7511,-2.67396 -14.9375,-5.98757 -2.21469,-1.75296 -4.496254,-4.25506 -6.097996,-6.68742 -0.905567,-1.37517 -2.439147,-4.47622 -2.967218,-6 -1.167733,-3.36958 -1.770722,-7.4877 -1.556523,-10.63029 l 0.08982,-1.31779 1.482047,-0.877 c 7.732379,-4.57564 15.819083,-5.33179 22.299869,-2.08517 2.001075,1.00246 2.883717,1.62447 5.812503,4.09615 2.96416,2.50153 6.53429,4.16052 9.95949,4.62802 1.83488,0.25044 4.89087,0.10972 6.726,-0.30971 2.85042,-0.65148 5.6863,-1.89489 8.25201,-3.61815 l 1.375,-0.92351 0.10041,0.51872 c 0.12851,0.66387 5.7e-4,3.38615 -0.2388,5.08123 -0.81773,5.79047 -3.41176,11.17083 -7.43577,15.42275 -5.87311,6.20575 -14.35315,9.42879 -22.863343,8.68974 z"
       id="path53"
       transform="scale(0.26458333)" /></g></svg>
