<?xml version="1.0" encoding="UTF-8" standalone="no"?>
<!-- Created with Inkscape (http://www.inkscape.org/) -->

<svg
   width="200"
   height="200"
   viewBox="0 0 52.916669 52.916666"
   version="1.1"
   id="svg1"
   xml:space="preserve"
   inkscape:version="1.3.2 (091e20e, 2023-11-25, custom)"
   sodipodi:docname="ハッカソン　アイコン1(修正版).svg"
   xmlns:inkscape="http://www.inkscape.org/namespaces/inkscape"
   xmlns:sodipodi="http://sodipodi.sourceforge.net/DTD/sodipodi-0.dtd"
   xmlns:xlink="http://www.w3.org/1999/xlink"
   xmlns="http://www.w3.org/2000/svg"
   xmlns:svg="http://www.w3.org/2000/svg"><sodipodi:namedview
     id="namedview1"
     pagecolor="#ffffff"
     bordercolor="#000000"
     borderopacity="0.25"
     inkscape:showpageshadow="2"
     inkscape:pageopacity="0.0"
     inkscape:pagecheckerboard="0"
     inkscape:deskcolor="#ffffff"
     inkscape:document-units="px"
     showborder="true"
     inkscape:zoom="1.4142136"
     inkscape:cx="124.80434"
     inkscape:cy="125.1579"
     inkscape:window-width="1440"
     inkscape:window-height="890"
     inkscape:window-x="-6"
     inkscape:window-y="-6"
     inkscape:window-maximized="1"
     inkscape:current-layer="layer3" /><defs
     id="defs1"><linearGradient
       id="swatch85"
       inkscape:swatch="solid"><stop
         style="stop-color:#0c0f69;stop-opacity:1;"
         offset="0"
         id="stop85" /></linearGradient><linearGradient
       id="swatch54"
       inkscape:swatch="solid"><stop
         style="stop-color:#000000;stop-opacity:1;"
         offset="0"
         id="stop54" /></linearGradient><inkscape:path-effect
       effect="bspline"
       id="path-effect33"
       is_visible="true"
       lpeversion="1.3"
       weight="33.333333"
       steps="2"
       helper_size="0"
       apply_no_weight="true"
       apply_with_weight="true"
       only_selected="false"
       uniform="false" /><inkscape:path-effect
       effect="bspline"
       id="path-effect32"
       is_visible="true"
       lpeversion="1.3"
       weight="33.333333"
       steps="2"
       helper_size="0"
       apply_no_weight="true"
       apply_with_weight="true"
       only_selected="false"
       uniform="false" /><inkscape:path-effect
       effect="bspline"
       id="path-effect31"
       is_visible="true"
       lpeversion="1.3"
       weight="33.333333"
       steps="2"
       helper_size="0"
       apply_no_weight="true"
       apply_with_weight="true"
       only_selected="false"
       uniform="false" /><linearGradient
       inkscape:collect="always"
       xlink:href="#swatch85"
       id="linearGradient85"
       x1="22.866965"
       y1="18.50178"
       x2="45.544229"
       y2="18.50178"
       gradientUnits="userSpaceOnUse" /><linearGradient
       inkscape:collect="always"
       xlink:href="#swatch85"
       id="linearGradient86"
       x1="18.549854"
       y1="30.590373"
       x2="28.064827"
       y2="30.590373"
       gradientUnits="userSpaceOnUse" /><linearGradient
       inkscape:collect="always"
       xlink:href="#swatch85"
       id="linearGradient87"
       x1="2.7018366"
       y1="39.451893"
       x2="23.137656"
       y2="39.451893"
       gradientUnits="userSpaceOnUse" /></defs><g
     inkscape:groupmode="layer"
     id="layer3"
     inkscape:label="Layer 2"><rect
       style="opacity:0.785;fill:#afdde9;fill-opacity:1;stroke:#d7eef4;stroke-width:0.99986;stroke-dasharray:none;stroke-opacity:1"
       id="rect91"
       width="52.571918"
       height="52.759007"
       x="0"
       y="0" /></g><g
     inkscape:groupmode="layer"
     id="layer2"
     inkscape:label="Layer 1"><path
       style="opacity:0.785;fill:#2a7fff;fill-opacity:1;stroke-width:0.99986043;stroke-dasharray:none;stroke:url(#linearGradient85);stroke-opacity:1"
       d="m 23.573173,28.063302 c 0,0 18.708867,-20.5797551 18.708867,-20.5797551 0.623641,-0.3118205 1.247264,-0.6236319 1.746536,-0.6188575 0.499271,0.00477 0.966617,0.405356 1.013202,0.9174716 0.04659,0.5121157 -0.327585,1.1357326 -3.63288,4.846392 -3.305296,3.71066 -9.541461,10.50808 -15.77775,17.305636 z"
       id="path31"
       inkscape:path-effect="#path-effect31"
       inkscape:original-d="m 23.573173,28.063302 c 0,0 18.708867,-20.5797551 18.708867,-20.5797551 0.623641,-0.3118207 1.247264,-0.6236319 1.870887,-0.9354434 0.436549,0.2494603 0.87308,0.6859918 1.309621,1.1225321 C 45.088364,8.2942771 44.714193,8.9178934 44.340016,9.5415224 38.103602,16.339213 25.631148,29.934189 25.631148,29.934189 Z" /><path
       style="opacity:0.785;fill:#2a7fff;fill-opacity:1;stroke-width:0.99986043;stroke-dasharray:none;stroke:url(#linearGradient86);stroke-opacity:1"
       d="m 19.644311,26.94077 c 0,0 7.483546,5.986836 7.483546,5.986836 0,0 -3.554684,1.683798 -3.554684,1.683798 0,0 -4.490128,-3.180507 -4.490128,-3.180507 z"
       id="path32"
       inkscape:path-effect="#path-effect32"
       inkscape:original-d="m 19.644311,26.94077 7.483546,5.986836 -3.554684,1.683798 -4.490128,-3.180507 z"
       sodipodi:nodetypes="ccccc" /><path
       style="opacity:0.785;fill:#2a7fff;fill-opacity:1;stroke-width:0.99986043;stroke-dasharray:none;stroke:url(#linearGradient87);stroke-opacity:1"
       d="m 3.3675957,38.166089 c 0.4365404,-0.249451 1.8084973,-0.124728 2.9934154,-0.03118 1.1849181,0.09355 2.1826848,0.155907 3.3364216,-0.623645 1.1537363,-0.779551 2.4633313,-2.400955 3.8353293,-3.492311 1.371998,-1.091356 2.80633,-1.652617 3.866499,-1.68379 1.060169,-0.03117 1.746154,0.467726 1.652597,0.997813 -0.09356,0.530088 -0.966628,1.091348 -1.722674,1.51721 -0.756046,0.425862 -1.465517,0.748349 -1.601984,1.034323 -0.136468,0.285975 0.300063,0.535421 1.204339,0.223598 0.904275,-0.311823 2.27623,-1.184886 2.993405,-1.496698 0.717174,-0.311813 0.779536,-0.06237 0.218258,0.779548 -0.561277,0.841913 -1.746161,2.276246 -2.621125,3.191178 -0.874965,0.914932 -1.52788,1.371972 -1.604887,1.631678 -0.07701,0.259705 0.421892,0.322068 1.23347,-0.09054 0.811579,-0.412605 2.02678,-1.371974 2.883849,-2.257035 0.857069,-0.885062 1.355963,-1.695763 1.792507,-2.101122 0.436544,-0.405359 0.810714,-0.405359 0.81071,0.530103 -4e-6,0.935462 -0.374174,2.806313 -0.935447,4.396579 -0.561273,1.590267 -1.309613,2.899861 -2.307432,3.897674 -0.997818,0.997813 -2.245052,1.683791 -2.837499,1.902059 -0.592447,0.218267 -0.530085,-0.03118 -0.467721,-0.592454 0.06236,-0.561274 0.124725,-1.434338 0.187088,-2.307418 -0.74837,0.686006 -1.496718,1.371991 -2.35205,1.865345 -0.855332,0.493354 -1.870872,0.810711 -2.409833,0.938212 -0.53896,0.127502 -0.601326,0.06513 -0.383051,-0.527322 0.218275,-0.592458 0.717169,-1.714969 1.216072,-2.837501 -0.748355,0.187089 -1.49671,0.374177 -2.3698001,0.405358 C 9.1049624,43.466933 8.1071757,43.34221 7.5459086,43.279848 6.9846414,43.217485 6.8599181,43.217485 7.3588324,42.812118 7.8577466,42.406751 8.9802561,41.596049 10.102788,40.785331 8.7308045,40.722968 7.3588479,40.660606 6.3298402,40.473514 5.3008325,40.286422 4.6148538,39.974613 4.0224015,39.506886 3.4299492,39.039158 2.9310554,38.41554 3.3675957,38.166089 Z"
       id="path33"
       inkscape:path-effect="#path-effect33"
       inkscape:original-d="m 2.4321528,37.791912 c 1.3719833,0.124726 2.7439402,0.249449 4.1159509,0.374177 0.9978258,0.06236 1.9955922,0.124726 2.9934187,0.18709 1.3096476,-1.621468 2.6192416,-3.242872 3.9288616,-4.864307 1.434376,-0.561277 2.868708,-1.122538 4.30304,-1.683798 0.686006,0.498914 1.371991,0.997812 2.057975,1.496711 -0.873098,0.561276 -1.746169,1.122537 -2.619241,1.683798 -0.686006,0.187094 -1.371984,0.561265 -2.057975,0.935442 0.436549,0.249457 0.87308,0.498904 1.30962,0.748355 1.372011,-0.873098 2.743967,-1.74616 4.115951,-2.619242 0.06236,0.249457 0.124726,0.498903 0.187089,0.748355 -1.184919,1.434375 -2.369802,2.868708 -3.554685,4.303041 -0.623641,0.311824 -1.247258,0.810717 -1.870887,1.309618 0.498913,0.06236 0.997811,0.124728 1.49671,0.18709 1.184918,-0.810736 2.369789,-1.808523 3.554684,-2.80633 0.498914,-0.810733 0.997807,-1.621435 1.49671,-2.432153 0.374185,0 0.748355,0 1.122532,0 -0.374185,1.870924 -0.748355,3.741775 -1.122532,5.612662 -0.74837,1.309645 -1.49671,2.61924 -2.245064,3.928861 -1.247283,0.686004 -2.494516,1.371984 -3.741774,2.057975 0.06236,-0.249458 0.124726,-0.498904 0.187089,-0.748356 0.06236,-0.873096 0.187089,-2.61924 0.187089,-2.61924 -0.74837,0.686006 -1.496717,1.371992 -2.245064,2.057974 -0.997827,0.187098 -1.995613,0.561266 -2.993419,0.935445 -0.06236,-0.06236 -0.124726,-0.124727 -0.187089,-0.187089 0.498913,-1.122553 1.49671,-3.367596 1.49671,-3.367596 0,0 -1.49671,0.374176 -2.245065,0.561266 -0.9978257,-0.124727 -1.9956121,-0.249452 -2.9934183,-0.374176 -0.1247283,0 -0.2494516,0 -0.3741775,0 1.1225546,-0.810734 3.3675958,-2.432154 3.3675958,-2.432154 0,0 -2.7439401,-0.124725 -4.1159504,-0.187089 C 5.3008324,40.286422 4.6148539,39.974613 3.928862,39.662799 3.4299491,39.039158 2.9310558,38.41554 2.4321528,37.791912 Z"
       sodipodi:nodetypes="ccccccccccccccccccccccccccccccccc" /></g></svg>
